<mxfile host="app.diagrams.net" modified="2021-02-06T22:16:11.343Z" agent="5.0 (Macintosh; Intel Mac OS X 10_15_7) AppleWebKit/537.36 (KHTML, like Gecko) Chrome/88.0.4324.146 Safari/537.36" etag="tJDz-qRZuzHuN83nqHUU" version="14.2.9" type="github">
  <diagram id="C5RBs43oDa-KdzZeNtuy" name="Page-1">
    <mxGraphModel dx="847" dy="623" grid="1" gridSize="10" guides="1" tooltips="1" connect="1" arrows="1" fold="1" page="1" pageScale="1" pageWidth="827" pageHeight="1169" math="0" shadow="0">
      <root>
        <mxCell id="WIyWlLk6GJQsqaUBKTNV-0" />
        <mxCell id="WIyWlLk6GJQsqaUBKTNV-1" parent="WIyWlLk6GJQsqaUBKTNV-0" />
        <mxCell id="DtLnhYHrFQpBKFthqQRD-1" value="&lt;font style=&quot;font-size: 18px&quot;&gt;按钮&lt;/font&gt;" style="shape=document;whiteSpace=wrap;html=1;boundedLbl=1;fillColor=#ffe6cc;strokeColor=#d79b00;" vertex="1" parent="WIyWlLk6GJQsqaUBKTNV-1">
          <mxGeometry x="70" y="390" width="120" height="80" as="geometry" />
        </mxCell>
        <mxCell id="DtLnhYHrFQpBKFthqQRD-2" value="" style="shape=curlyBracket;whiteSpace=wrap;html=1;rounded=1;" vertex="1" parent="WIyWlLk6GJQsqaUBKTNV-1">
          <mxGeometry x="220" y="210" width="40" height="420" as="geometry" />
        </mxCell>
        <mxCell id="DtLnhYHrFQpBKFthqQRD-17" value="" style="edgeStyle=orthogonalEdgeStyle;rounded=0;orthogonalLoop=1;jettySize=auto;html=1;" edge="1" parent="WIyWlLk6GJQsqaUBKTNV-1" source="DtLnhYHrFQpBKFthqQRD-10" target="DtLnhYHrFQpBKFthqQRD-16">
          <mxGeometry relative="1" as="geometry">
            <Array as="points">
              <mxPoint x="520" y="230" />
              <mxPoint x="520" y="160" />
            </Array>
          </mxGeometry>
        </mxCell>
        <mxCell id="DtLnhYHrFQpBKFthqQRD-19" value="" style="edgeStyle=orthogonalEdgeStyle;rounded=0;orthogonalLoop=1;jettySize=auto;html=1;entryX=0;entryY=0.5;entryDx=0;entryDy=0;" edge="1" parent="WIyWlLk6GJQsqaUBKTNV-1" source="DtLnhYHrFQpBKFthqQRD-10" target="DtLnhYHrFQpBKFthqQRD-18">
          <mxGeometry relative="1" as="geometry">
            <mxPoint x="530" y="280" as="targetPoint" />
            <Array as="points">
              <mxPoint x="490" y="230" />
              <mxPoint x="490" y="230" />
            </Array>
          </mxGeometry>
        </mxCell>
        <mxCell id="DtLnhYHrFQpBKFthqQRD-23" value="" style="edgeStyle=orthogonalEdgeStyle;rounded=0;orthogonalLoop=1;jettySize=auto;html=1;" edge="1" parent="WIyWlLk6GJQsqaUBKTNV-1" source="DtLnhYHrFQpBKFthqQRD-10" target="DtLnhYHrFQpBKFthqQRD-22">
          <mxGeometry relative="1" as="geometry">
            <Array as="points">
              <mxPoint x="520" y="230" />
              <mxPoint x="520" y="310" />
            </Array>
          </mxGeometry>
        </mxCell>
        <mxCell id="DtLnhYHrFQpBKFthqQRD-10" value="&lt;font style=&quot;font-size: 18px&quot;&gt;原来的悬浮按钮&lt;br&gt;UI优化&lt;/font&gt;" style="rounded=1;whiteSpace=wrap;html=1;fillColor=#f9f7ed;strokeColor=#36393d;" vertex="1" parent="WIyWlLk6GJQsqaUBKTNV-1">
          <mxGeometry x="280" y="190" width="160" height="80" as="geometry" />
        </mxCell>
        <mxCell id="DtLnhYHrFQpBKFthqQRD-25" value="" style="edgeStyle=orthogonalEdgeStyle;rounded=0;orthogonalLoop=1;jettySize=auto;html=1;" edge="1" parent="WIyWlLk6GJQsqaUBKTNV-1" source="DtLnhYHrFQpBKFthqQRD-11" target="DtLnhYHrFQpBKFthqQRD-24">
          <mxGeometry relative="1" as="geometry" />
        </mxCell>
        <mxCell id="DtLnhYHrFQpBKFthqQRD-11" value="&lt;font style=&quot;font-size: 18px&quot;&gt;微信按钮&lt;br&gt;UE添加校验&lt;br&gt;&lt;/font&gt;" style="rounded=1;whiteSpace=wrap;html=1;fillColor=#f9f7ed;strokeColor=#36393d;" vertex="1" parent="WIyWlLk6GJQsqaUBKTNV-1">
          <mxGeometry x="280" y="410" width="120" height="60" as="geometry" />
        </mxCell>
        <mxCell id="DtLnhYHrFQpBKFthqQRD-16" value="&lt;font style=&quot;font-size: 18px&quot;&gt;按钮&lt;/font&gt;" style="whiteSpace=wrap;html=1;rounded=1;strokeColor=#36393d;fillColor=#f9f7ed;" vertex="1" parent="WIyWlLk6GJQsqaUBKTNV-1">
          <mxGeometry x="610" y="140" width="160" height="40" as="geometry" />
        </mxCell>
        <mxCell id="DtLnhYHrFQpBKFthqQRD-18" value="&lt;font style=&quot;font-size: 18px&quot;&gt;应用下载&lt;/font&gt;" style="whiteSpace=wrap;html=1;rounded=1;strokeColor=#36393d;fillColor=#f9f7ed;" vertex="1" parent="WIyWlLk6GJQsqaUBKTNV-1">
          <mxGeometry x="610" y="210" width="160" height="40" as="geometry" />
        </mxCell>
        <mxCell id="DtLnhYHrFQpBKFthqQRD-22" value="&lt;font style=&quot;font-size: 18px&quot;&gt;立即购买&lt;/font&gt;" style="whiteSpace=wrap;html=1;rounded=1;strokeColor=#36393d;fillColor=#f9f7ed;" vertex="1" parent="WIyWlLk6GJQsqaUBKTNV-1">
          <mxGeometry x="610" y="290" width="160" height="40" as="geometry" />
        </mxCell>
        <mxCell id="DtLnhYHrFQpBKFthqQRD-24" value="" style="whiteSpace=wrap;html=1;rounded=1;strokeColor=#36393d;fillColor=#f9f7ed;" vertex="1" parent="WIyWlLk6GJQsqaUBKTNV-1">
          <mxGeometry x="480" y="410" width="120" height="60" as="geometry" />
        </mxCell>
      </root>
    </mxGraphModel>
  </diagram>
</mxfile>
